<svg width="22" height="23" viewBox="0 0 22 23" fill="none" xmlns="http://www.w3.org/2000/svg">
<path d="M10.9997 17.9167C11.181 17.9167 11.3582 17.863 11.5089 17.7623C11.6597 17.6615 11.7772 17.5184 11.8466 17.3509C11.9159 17.1834 11.9341 16.9991 11.8987 16.8212C11.8634 16.6434 11.7761 16.4801 11.6479 16.3519C11.5197 16.2237 11.3563 16.1364 11.1785 16.101C11.0007 16.0657 10.8164 16.0838 10.6489 16.1532C10.4814 16.2226 10.3382 16.3401 10.2375 16.4908C10.1368 16.6416 10.083 16.8188 10.083 17.0001C10.083 17.2432 10.1796 17.4764 10.3515 17.6483C10.5234 17.8202 10.7566 17.9167 10.9997 17.9167ZM15.583 17.9167C15.7643 17.9167 15.9415 17.863 16.0923 17.7623C16.243 17.6615 16.3605 17.5184 16.4299 17.3509C16.4993 17.1834 16.5174 16.9991 16.4821 16.8212C16.4467 16.6434 16.3594 16.4801 16.2312 16.3519C16.103 16.2237 15.9397 16.1364 15.7618 16.101C15.584 16.0657 15.3997 16.0838 15.2322 16.1532C15.0647 16.2226 14.9216 16.3401 14.8208 16.4908C14.7201 16.6416 14.6663 16.8188 14.6663 17.0001C14.6663 17.2432 14.7629 17.4764 14.9348 17.6483C15.1067 17.8202 15.3399 17.9167 15.583 17.9167ZM15.583 14.2501C15.7643 14.2501 15.9415 14.1963 16.0923 14.0956C16.243 13.9949 16.3605 13.8517 16.4299 13.6842C16.4993 13.5167 16.5174 13.3324 16.4821 13.1546C16.4467 12.9768 16.3594 12.8134 16.2312 12.6852C16.103 12.557 15.9397 12.4697 15.7618 12.4344C15.584 12.399 15.3997 12.4171 15.2322 12.4865C15.0647 12.5559 14.9216 12.6734 14.8208 12.8241C14.7201 12.9749 14.6663 13.1521 14.6663 13.3334C14.6663 13.5765 14.7629 13.8097 14.9348 13.9816C15.1067 14.1535 15.3399 14.2501 15.583 14.2501ZM10.9997 14.2501C11.181 14.2501 11.3582 14.1963 11.5089 14.0956C11.6597 13.9949 11.7772 13.8517 11.8466 13.6842C11.9159 13.5167 11.9341 13.3324 11.8987 13.1546C11.8634 12.9768 11.7761 12.8134 11.6479 12.6852C11.5197 12.557 11.3563 12.4697 11.1785 12.4344C11.0007 12.399 10.8164 12.4171 10.6489 12.4865C10.4814 12.5559 10.3382 12.6734 10.2375 12.8241C10.1368 12.9749 10.083 13.1521 10.083 13.3334C10.083 13.5765 10.1796 13.8097 10.3515 13.9816C10.5234 14.1535 10.7566 14.2501 10.9997 14.2501ZM17.4163 3.25008H16.4997V2.33341C16.4997 2.0903 16.4031 1.85714 16.2312 1.68523C16.0593 1.51333 15.8261 1.41675 15.583 1.41675C15.3399 1.41675 15.1067 1.51333 14.9348 1.68523C14.7629 1.85714 14.6663 2.0903 14.6663 2.33341V3.25008H7.33301V2.33341C7.33301 2.0903 7.23643 1.85714 7.06452 1.68523C6.89261 1.51333 6.65946 1.41675 6.41634 1.41675C6.17323 1.41675 5.94007 1.51333 5.76816 1.68523C5.59625 1.85714 5.49967 2.0903 5.49967 2.33341V3.25008H4.58301C3.85366 3.25008 3.15419 3.53981 2.63846 4.05554C2.12274 4.57126 1.83301 5.27074 1.83301 6.00008V18.8334C1.83301 19.5628 2.12274 20.2622 2.63846 20.778C3.15419 21.2937 3.85366 21.5834 4.58301 21.5834H17.4163C18.1457 21.5834 18.8452 21.2937 19.3609 20.778C19.8766 20.2622 20.1663 19.5628 20.1663 18.8334V6.00008C20.1663 5.27074 19.8766 4.57126 19.3609 4.05554C18.8452 3.53981 18.1457 3.25008 17.4163 3.25008ZM18.333 18.8334C18.333 19.0765 18.2364 19.3097 18.0645 19.4816C17.8926 19.6535 17.6595 19.7501 17.4163 19.7501H4.58301C4.33989 19.7501 4.10674 19.6535 3.93483 19.4816C3.76292 19.3097 3.66634 19.0765 3.66634 18.8334V10.5834H18.333V18.8334ZM18.333 8.75008H3.66634V6.00008C3.66634 5.75697 3.76292 5.52381 3.93483 5.3519C4.10674 5.17999 4.33989 5.08342 4.58301 5.08342H5.49967V6.00008C5.49967 6.2432 5.59625 6.47635 5.76816 6.64826C5.94007 6.82017 6.17323 6.91675 6.41634 6.91675C6.65946 6.91675 6.89261 6.82017 7.06452 6.64826C7.23643 6.47635 7.33301 6.2432 7.33301 6.00008V5.08342H14.6663V6.00008C14.6663 6.2432 14.7629 6.47635 14.9348 6.64826C15.1067 6.82017 15.3399 6.91675 15.583 6.91675C15.8261 6.91675 16.0593 6.82017 16.2312 6.64826C16.4031 6.47635 16.4997 6.2432 16.4997 6.00008V5.08342H17.4163C17.6595 5.08342 17.8926 5.17999 18.0645 5.3519C18.2364 5.52381 18.333 5.75697 18.333 6.00008V8.75008ZM6.41634 14.2501C6.59764 14.2501 6.77487 14.1963 6.92561 14.0956C7.07636 13.9949 7.19385 13.8517 7.26323 13.6842C7.33261 13.5167 7.35076 13.3324 7.31539 13.1546C7.28002 12.9768 7.19272 12.8134 7.06452 12.6852C6.93632 12.557 6.77299 12.4697 6.59517 12.4344C6.41736 12.399 6.23305 12.4171 6.06555 12.4865C5.89805 12.5559 5.75489 12.6734 5.65416 12.8241C5.55344 12.9749 5.49967 13.1521 5.49967 13.3334C5.49967 13.5765 5.59625 13.8097 5.76816 13.9816C5.94007 14.1535 6.17323 14.2501 6.41634 14.2501ZM6.41634 17.9167C6.59764 17.9167 6.77487 17.863 6.92561 17.7623C7.07636 17.6615 7.19385 17.5184 7.26323 17.3509C7.33261 17.1834 7.35076 16.9991 7.31539 16.8212C7.28002 16.6434 7.19272 16.4801 7.06452 16.3519C6.93632 16.2237 6.77299 16.1364 6.59517 16.101C6.41736 16.0657 6.23305 16.0838 6.06555 16.1532C5.89805 16.2226 5.75489 16.3401 5.65416 16.4908C5.55344 16.6416 5.49967 16.8188 5.49967 17.0001C5.49967 17.2432 5.59625 17.4764 5.76816 17.6483C5.94007 17.8202 6.17323 17.9167 6.41634 17.9167Z" fill="url(#paint0_linear_2578_12780)"/>
<defs>
<linearGradient id="paint0_linear_2578_12780" x1="10.9997" y1="1.41675" x2="10.9997" y2="21.5834" gradientUnits="userSpaceOnUse">
<stop offset="0.0189465" stop-color="#FFB6B1"/>
<stop offset="1" stop-color="#FF7067"/>
</linearGradient>
</defs>
</svg>
