<svg width="40" height="40" viewBox="0 0 40 40" fill="none" xmlns="http://www.w3.org/2000/svg">
<rect x="0.5" y="0.5" width="39" height="39" stroke="#B9B3B3"/>
<path d="M20 10.4165C20.6903 10.4165 21.25 10.9762 21.25 11.6665V20.3153L24.1162 17.4493C24.6043 16.9612 25.3957 16.9612 25.8838 17.4493C26.372 17.9375 26.372 18.7288 25.8838 19.217L20.8838 24.217C20.6495 24.4515 20.3315 24.5832 20 24.5832C19.6685 24.5832 19.3505 24.4515 19.1162 24.217L14.1161 19.217C13.628 18.7288 13.628 17.9375 14.1161 17.4493C14.6043 16.9612 15.3957 16.9612 15.8839 17.4493L18.75 20.3153V11.6665C18.75 10.9762 19.3097 10.4165 20 10.4165Z" fill="url(#paint0_linear_3325_12773)"/>
<path d="M12.0835 28.3335C12.0835 27.6432 12.6431 27.0835 13.3335 27.0835H26.6668C27.3572 27.0835 27.9168 27.6432 27.9168 28.3335C27.9168 29.0238 27.3572 29.5835 26.6668 29.5835H13.3335C12.6431 29.5835 12.0835 29.0238 12.0835 28.3335Z" fill="url(#paint1_linear_3325_12773)"/>
<path fill-rule="evenodd" clip-rule="evenodd" d="M19.9045 2.0835C16.0572 2.08348 13.0421 2.08346 10.6897 2.39975C8.28178 2.72348 6.38175 3.39905 4.8904 4.8904C3.39905 6.38175 2.72348 8.28178 2.39975 10.6897C2.08346 13.0421 2.08348 16.0572 2.0835 19.9045V20.0958C2.08348 23.9432 2.08346 26.9582 2.39975 29.3107C2.72348 31.7185 3.39905 33.6187 4.8904 35.11C6.38175 36.6013 8.28178 37.2768 10.6897 37.6007C13.0421 37.9168 16.0572 37.9168 19.9045 37.9168H20.0958C23.9432 37.9168 26.9582 37.9168 29.3107 37.6007C31.7185 37.2768 33.6187 36.6013 35.11 35.11C36.6013 33.6187 37.2768 31.7185 37.6007 29.3107C37.9168 26.9582 37.9168 23.9432 37.9168 20.0958V19.9045C37.9168 16.0572 37.9168 13.0421 37.6007 10.6897C37.2768 8.28178 36.6013 6.38175 35.11 4.8904C33.6187 3.39905 31.7185 2.72348 29.3107 2.39975C26.9582 2.08346 23.9432 2.08348 20.0958 2.0835H19.9045ZM6.65816 6.65816C7.60758 5.70873 8.89211 5.16391 11.0228 4.87745C13.1894 4.58615 16.0364 4.5835 20.0002 4.5835C23.9638 4.5835 26.8108 4.58615 28.9775 4.87745C31.1082 5.16391 32.3927 5.70873 33.3422 6.65816C34.2917 7.60758 34.8365 8.89211 35.1228 11.0228C35.4142 13.1894 35.4168 16.0365 35.4168 20.0002C35.4168 23.9638 35.4142 26.8108 35.1228 28.9775C34.8365 31.1082 34.2917 32.3927 33.3422 33.3422C32.3927 34.2917 31.1082 34.8365 28.9775 35.1228C26.8108 35.4142 23.9638 35.4168 20.0002 35.4168C16.0364 35.4168 13.1894 35.4142 11.0228 35.1228C8.89211 34.8365 7.60758 34.2917 6.65816 33.3422C5.70873 32.3927 5.16391 31.1082 4.87745 28.9775C4.58615 26.8108 4.5835 23.9638 4.5835 20.0002C4.5835 16.0365 4.58615 13.1894 4.87745 11.0228C5.16391 8.89211 5.70873 7.60758 6.65816 6.65816Z" fill="url(#paint2_linear_3325_12773)"/>
<defs>
<linearGradient id="paint0_linear_3325_12773" x1="20" y1="10.4165" x2="20" y2="24.5832" gradientUnits="userSpaceOnUse">
<stop offset="0.0189465" stop-color="#FFB6B1"/>
<stop offset="1" stop-color="#FF7067"/>
</linearGradient>
<linearGradient id="paint1_linear_3325_12773" x1="20.0002" y1="27.0835" x2="20.0002" y2="29.5835" gradientUnits="userSpaceOnUse">
<stop offset="0.0189465" stop-color="#FFB6B1"/>
<stop offset="1" stop-color="#FF7067"/>
</linearGradient>
<linearGradient id="paint2_linear_3325_12773" x1="20.0002" y1="2.0835" x2="20.0002" y2="37.9168" gradientUnits="userSpaceOnUse">
<stop offset="0.0189465" stop-color="#FFB6B1"/>
<stop offset="1" stop-color="#FF7067"/>
</linearGradient>
</defs>
</svg>
