<svg width="31" height="31" viewBox="0 0 31 31" fill="none" xmlns="http://www.w3.org/2000/svg">
<path d="M15.4999 18.0835C15.2445 18.0835 14.9948 18.1593 14.7823 18.3012C14.5699 18.4431 14.4044 18.6448 14.3066 18.8809C14.2088 19.1169 14.1833 19.3766 14.2331 19.6272C14.2829 19.8777 14.406 20.1079 14.5866 20.2885C14.7672 20.4692 14.9974 20.5922 15.248 20.642C15.4985 20.6918 15.7582 20.6663 15.9942 20.5685C16.2303 20.4707 16.432 20.3052 16.5739 20.0928C16.7159 19.8804 16.7916 19.6306 16.7916 19.3752C16.7916 19.0326 16.6555 18.7041 16.4133 18.4618C16.1711 18.2196 15.8425 18.0835 15.4999 18.0835ZM15.4999 2.5835C13.8037 2.5835 12.1241 2.9176 10.557 3.56672C8.98983 4.21584 7.56591 5.16728 6.36649 6.3667C3.94414 8.78904 2.58328 12.0744 2.58328 15.5002C2.57199 18.4828 3.60472 21.3754 5.50245 23.6764L2.91912 26.2597C2.73989 26.4414 2.61848 26.672 2.5702 26.9226C2.52193 27.1732 2.54895 27.4324 2.64787 27.6677C2.75515 27.9001 2.92907 28.0954 3.14754 28.2287C3.36602 28.3621 3.6192 28.4276 3.87495 28.4168H15.4999C18.9257 28.4168 22.2111 27.056 24.6334 24.6336C27.0558 22.2113 28.4166 18.9259 28.4166 15.5002C28.4166 12.0744 27.0558 8.78904 24.6334 6.3667C22.2111 3.94436 18.9257 2.5835 15.4999 2.5835V2.5835ZM15.4999 25.8335H6.98787L8.18912 24.6322C8.31116 24.5126 8.40826 24.37 8.47477 24.2125C8.54129 24.0551 8.57591 23.8861 8.57662 23.7152C8.57176 23.3745 8.43248 23.0495 8.18912 22.811C6.49779 21.1215 5.44455 18.8979 5.20884 16.519C4.97313 14.1401 5.56954 11.753 6.89645 9.76455C8.22336 7.77605 10.1987 6.30913 12.4859 5.61371C14.773 4.9183 17.2306 5.03741 19.4398 5.95076C21.649 6.86411 23.4732 8.51518 24.6016 10.6227C25.73 12.7302 26.0927 15.1637 25.6281 17.5087C25.1634 19.8537 23.9001 21.965 22.0533 23.483C20.2065 25.0009 17.8905 25.8316 15.4999 25.8335V25.8335ZM15.4999 10.3335C15.1574 10.3335 14.8288 10.4696 14.5866 10.7118C14.3444 10.9541 14.2083 11.2826 14.2083 11.6252V15.5002C14.2083 15.8427 14.3444 16.1713 14.5866 16.4135C14.8288 16.6557 15.1574 16.7918 15.4999 16.7918C15.8425 16.7918 16.1711 16.6557 16.4133 16.4135C16.6555 16.1713 16.7916 15.8427 16.7916 15.5002V11.6252C16.7916 11.2826 16.6555 10.9541 16.4133 10.7118C16.1711 10.4696 15.8425 10.3335 15.4999 10.3335Z" fill="#FF7067"/>
</svg>
