<svg width="16" height="20" viewBox="0 0 16 20" fill="none" xmlns="http://www.w3.org/2000/svg">
<path d="M8 10.9995C7.69555 10.9959 7.39732 11.0857 7.14544 11.2568C6.89357 11.4278 6.70015 11.672 6.59121 11.9563C6.48228 12.2406 6.46306 12.5515 6.53615 12.847C6.60923 13.1426 6.77111 13.4087 7 13.6095V14.9995C7 15.2647 7.10536 15.519 7.29289 15.7066C7.48043 15.8941 7.73478 15.9995 8 15.9995C8.26522 15.9995 8.51957 15.8941 8.70711 15.7066C8.89464 15.519 9 15.2647 9 14.9995V13.6095C9.22889 13.4087 9.39077 13.1426 9.46385 12.847C9.53694 12.5515 9.51772 12.2406 9.40879 11.9563C9.29985 11.672 9.10643 11.4278 8.85456 11.2568C8.60268 11.0857 8.30445 10.9959 8 10.9995ZM13 6.99946H5V4.99946C4.99854 4.40565 5.17334 3.82476 5.50226 3.33037C5.83118 2.83597 6.29942 2.45031 6.84768 2.22222C7.39594 1.99414 7.99956 1.93389 8.58209 2.04911C9.16462 2.16433 9.69985 2.44983 10.12 2.86946C10.4959 3.25353 10.7649 3.72929 10.9 4.24946C10.9328 4.37684 10.9904 4.49651 11.0695 4.60163C11.1486 4.70676 11.2476 4.79527 11.3609 4.86213C11.4742 4.92899 11.5995 4.97288 11.7298 4.9913C11.86 5.00971 11.9926 5.00229 12.12 4.96946C12.2474 4.93663 12.3671 4.87903 12.4722 4.79995C12.5773 4.72088 12.6658 4.62187 12.7327 4.50858C12.7995 4.39529 12.8434 4.26994 12.8618 4.1397C12.8802 4.00945 12.8728 3.87684 12.84 3.74946C12.6122 2.88426 12.1603 2.0944 11.53 1.45946C10.8302 0.761828 9.93934 0.287198 8.96996 0.0955052C8.00058 -0.0961878 6.99614 0.00365222 6.08346 0.382418C5.17078 0.761184 4.3908 1.40189 3.84201 2.22364C3.29321 3.04538 3.00021 4.01131 3 4.99946V6.99946C2.20435 6.99946 1.44129 7.31553 0.87868 7.87814C0.316071 8.44075 0 9.20381 0 9.99946V16.9995C0 17.7951 0.316071 18.5582 0.87868 19.1208C1.44129 19.6834 2.20435 19.9995 3 19.9995H13C13.7956 19.9995 14.5587 19.6834 15.1213 19.1208C15.6839 18.5582 16 17.7951 16 16.9995V9.99946C16 9.20381 15.6839 8.44075 15.1213 7.87814C14.5587 7.31553 13.7956 6.99946 13 6.99946ZM14 16.9995C14 17.2647 13.8946 17.519 13.7071 17.7066C13.5196 17.8941 13.2652 17.9995 13 17.9995H3C2.73478 17.9995 2.48043 17.8941 2.29289 17.7066C2.10536 17.519 2 17.2647 2 16.9995V9.99946C2 9.73425 2.10536 9.47989 2.29289 9.29236C2.48043 9.10482 2.73478 8.99946 3 8.99946H13C13.2652 8.99946 13.5196 9.10482 13.7071 9.29236C13.8946 9.47989 14 9.73425 14 9.99946V16.9995Z" fill="url(#paint0_linear_319_5611)"/>
<defs>
<linearGradient id="paint0_linear_319_5611" x1="8" y1="0.000518799" x2="8" y2="19.9995" gradientUnits="userSpaceOnUse">
<stop offset="0.0189465" stop-color="#FFB6B1"/>
<stop offset="1" stop-color="#FF7067"/>
</linearGradient>
</defs>
</svg>
