<svg width="24" height="25" viewBox="0 0 24 25" fill="none" xmlns="http://www.w3.org/2000/svg">
<path d="M19 6.5H16V5.5C16 4.96957 15.7893 4.46086 15.4142 4.08579C15.0391 3.71071 14.5304 3.5 14 3.5H10C9.46957 3.5 8.96086 3.71071 8.58579 4.08579C8.21071 4.46086 8 4.96957 8 5.5V6.5H5C4.20435 6.5 3.44129 6.81607 2.87868 7.37868C2.31607 7.94129 2 8.70435 2 9.5V18.5C2 19.2956 2.31607 20.0587 2.87868 20.6213C3.44129 21.1839 4.20435 21.5 5 21.5H19C19.7956 21.5 20.5587 21.1839 21.1213 20.6213C21.6839 20.0587 22 19.2956 22 18.5V9.5C22 8.70435 21.6839 7.94129 21.1213 7.37868C20.5587 6.81607 19.7956 6.5 19 6.5ZM10 5.5H14V6.5H10V5.5ZM20 18.5C20 18.7652 19.8946 19.0196 19.7071 19.2071C19.5196 19.3946 19.2652 19.5 19 19.5H5C4.73478 19.5 4.48043 19.3946 4.29289 19.2071C4.10536 19.0196 4 18.7652 4 18.5V13.5H8V14.5C8 14.7652 8.10536 15.0196 8.29289 15.2071C8.48043 15.3946 8.73478 15.5 9 15.5C9.26522 15.5 9.51957 15.3946 9.70711 15.2071C9.89464 15.0196 10 14.7652 10 14.5V13.5H14V14.5C14 14.7652 14.1054 15.0196 14.2929 15.2071C14.4804 15.3946 14.7348 15.5 15 15.5C15.2652 15.5 15.5196 15.3946 15.7071 15.2071C15.8946 15.0196 16 14.7652 16 14.5V13.5H20V18.5ZM20 11.5H4V9.5C4 9.23478 4.10536 8.98043 4.29289 8.79289C4.48043 8.60536 4.73478 8.5 5 8.5H19C19.2652 8.5 19.5196 8.60536 19.7071 8.79289C19.8946 8.98043 20 9.23478 20 9.5V11.5Z" fill="url(#paint0_linear_2578_12768)"/>
<defs>
<linearGradient id="paint0_linear_2578_12768" x1="12" y1="3.5" x2="12" y2="21.5" gradientUnits="userSpaceOnUse">
<stop offset="0.0189465" stop-color="#FFB6B1"/>
<stop offset="1" stop-color="#FF7067"/>
</linearGradient>
</defs>
</svg>
