<svg width="17" height="17" viewBox="0 0 17 17" fill="none" xmlns="http://www.w3.org/2000/svg">
<path d="M16.4168 4.7316C16.4174 4.62741 16.3975 4.52413 16.3581 4.42767C16.3187 4.33122 16.2606 4.24349 16.1873 4.16952L12.8306 0.812848C12.7566 0.739476 12.6689 0.681427 12.5724 0.64203C12.476 0.602633 12.3727 0.582663 12.2685 0.583265C12.1643 0.582663 12.061 0.602633 11.9646 0.64203C11.8681 0.681427 11.7804 0.739476 11.7064 0.812848L9.46601 3.05326L0.813093 11.7062C0.73972 11.7802 0.681671 11.8679 0.642274 11.9643C0.602877 12.0608 0.582907 12.1641 0.583509 12.2683V15.6249C0.583509 15.8349 0.666917 16.0363 0.815383 16.1847C0.963849 16.3332 1.16521 16.4166 1.37518 16.4166H4.73184C4.84262 16.4226 4.95342 16.4053 5.05708 16.3657C5.16073 16.3262 5.25491 16.2653 5.33351 16.187L13.9389 7.5341L16.1873 5.33326C16.2595 5.25654 16.3184 5.16823 16.3614 5.07202C16.3691 5.00891 16.3691 4.94512 16.3614 4.88201C16.3651 4.84516 16.3651 4.80803 16.3614 4.77118L16.4168 4.7316ZM4.40726 14.8333H2.16684V12.5928L10.0281 4.7316L12.2685 6.97201L4.40726 14.8333ZM13.3848 5.85576L11.1443 3.61535L12.2685 2.4991L14.501 4.7316L13.3848 5.85576Z" fill="#FF7067"/>
</svg>
