<svg width="16" height="11" viewBox="0 0 16 11" fill="none" xmlns="http://www.w3.org/2000/svg">
<rect width="16" height="11" rx="2" fill="white"/>
<mask id="mask0_319_5640" style="mask-type:luminance" maskUnits="userSpaceOnUse" x="0" y="0" width="16" height="11">
<rect width="16" height="11" rx="2" fill="white"/>
</mask>
<g mask="url(#mask0_319_5640)">
<path fill-rule="evenodd" clip-rule="evenodd" d="M16 0H0V0.733333H16V0ZM16 1.46667H0V2.2H16V1.46667ZM0 2.93333H16V3.66667H0V2.93333ZM16 4.4H0V5.13333H16V4.4ZM0 5.86667H16V6.6H0V5.86667ZM16 7.33333H0V8.06667H16V7.33333ZM0 8.8H16V9.53333H0V8.8ZM16 10.2667H0V11H16V10.2667Z" fill="#D02F44"/>
<rect width="6.85714" height="5.13333" fill="#46467F"/>
<g filter="url(#filter0_d_319_5640)">
<path fill-rule="evenodd" clip-rule="evenodd" d="M1.52362 1.09994C1.52362 1.30245 1.35307 1.46661 1.14267 1.46661C0.932277 1.46661 0.761719 1.30245 0.761719 1.09994C0.761719 0.897439 0.932277 0.733276 1.14267 0.733276C1.35307 0.733276 1.52362 0.897439 1.52362 1.09994ZM3.04743 1.09994C3.04743 1.30245 2.87687 1.46661 2.66648 1.46661C2.45609 1.46661 2.28553 1.30245 2.28553 1.09994C2.28553 0.897439 2.45609 0.733276 2.66648 0.733276C2.87687 0.733276 3.04743 0.897439 3.04743 1.09994ZM4.19029 1.46661C4.40068 1.46661 4.57124 1.30245 4.57124 1.09994C4.57124 0.897439 4.40068 0.733276 4.19029 0.733276C3.9799 0.733276 3.80934 0.897439 3.80934 1.09994C3.80934 1.30245 3.9799 1.46661 4.19029 1.46661ZM6.09505 1.09994C6.09505 1.30245 5.92449 1.46661 5.7141 1.46661C5.50371 1.46661 5.33315 1.30245 5.33315 1.09994C5.33315 0.897439 5.50371 0.733276 5.7141 0.733276C5.92449 0.733276 6.09505 0.897439 6.09505 1.09994ZM1.90458 2.19994C2.11497 2.19994 2.28553 2.03578 2.28553 1.83328C2.28553 1.63077 2.11497 1.46661 1.90458 1.46661C1.69418 1.46661 1.52362 1.63077 1.52362 1.83328C1.52362 2.03578 1.69418 2.19994 1.90458 2.19994ZM3.80934 1.83328C3.80934 2.03578 3.63878 2.19994 3.42839 2.19994C3.21799 2.19994 3.04743 2.03578 3.04743 1.83328C3.04743 1.63077 3.21799 1.46661 3.42839 1.46661C3.63878 1.46661 3.80934 1.63077 3.80934 1.83328ZM4.9522 2.19994C5.16259 2.19994 5.33315 2.03578 5.33315 1.83328C5.33315 1.63077 5.16259 1.46661 4.9522 1.46661C4.7418 1.46661 4.57124 1.63077 4.57124 1.83328C4.57124 2.03578 4.7418 2.19994 4.9522 2.19994ZM6.09505 2.56661C6.09505 2.76911 5.92449 2.93328 5.7141 2.93328C5.50371 2.93328 5.33315 2.76911 5.33315 2.56661C5.33315 2.36411 5.50371 2.19994 5.7141 2.19994C5.92449 2.19994 6.09505 2.36411 6.09505 2.56661ZM4.19029 2.93328C4.40068 2.93328 4.57124 2.76911 4.57124 2.56661C4.57124 2.36411 4.40068 2.19994 4.19029 2.19994C3.9799 2.19994 3.80934 2.36411 3.80934 2.56661C3.80934 2.76911 3.9799 2.93328 4.19029 2.93328ZM3.04743 2.56661C3.04743 2.76911 2.87687 2.93328 2.66648 2.93328C2.45609 2.93328 2.28553 2.76911 2.28553 2.56661C2.28553 2.36411 2.45609 2.19994 2.66648 2.19994C2.87687 2.19994 3.04743 2.36411 3.04743 2.56661ZM1.14267 2.93328C1.35307 2.93328 1.52362 2.76911 1.52362 2.56661C1.52362 2.36411 1.35307 2.19994 1.14267 2.19994C0.932277 2.19994 0.761719 2.36411 0.761719 2.56661C0.761719 2.76911 0.932277 2.93328 1.14267 2.93328ZM2.28553 3.29994C2.28553 3.50245 2.11497 3.66661 1.90458 3.66661C1.69418 3.66661 1.52362 3.50245 1.52362 3.29994C1.52362 3.09744 1.69418 2.93328 1.90458 2.93328C2.11497 2.93328 2.28553 3.09744 2.28553 3.29994ZM3.42839 3.66661C3.63878 3.66661 3.80934 3.50245 3.80934 3.29994C3.80934 3.09744 3.63878 2.93328 3.42839 2.93328C3.21799 2.93328 3.04743 3.09744 3.04743 3.29994C3.04743 3.50245 3.21799 3.66661 3.42839 3.66661ZM5.33315 3.29994C5.33315 3.50245 5.16259 3.66661 4.9522 3.66661C4.7418 3.66661 4.57124 3.50245 4.57124 3.29994C4.57124 3.09744 4.7418 2.93328 4.9522 2.93328C5.16259 2.93328 5.33315 3.09744 5.33315 3.29994ZM5.7141 4.39994C5.92449 4.39994 6.09505 4.23578 6.09505 4.03328C6.09505 3.83077 5.92449 3.66661 5.7141 3.66661C5.50371 3.66661 5.33315 3.83077 5.33315 4.03328C5.33315 4.23578 5.50371 4.39994 5.7141 4.39994ZM4.57124 4.03328C4.57124 4.23578 4.40068 4.39994 4.19029 4.39994C3.9799 4.39994 3.80934 4.23578 3.80934 4.03328C3.80934 3.83077 3.9799 3.66661 4.19029 3.66661C4.40068 3.66661 4.57124 3.83077 4.57124 4.03328ZM2.66648 4.39994C2.87687 4.39994 3.04743 4.23578 3.04743 4.03328C3.04743 3.83077 2.87687 3.66661 2.66648 3.66661C2.45609 3.66661 2.28553 3.83077 2.28553 4.03328C2.28553 4.23578 2.45609 4.39994 2.66648 4.39994ZM1.52362 4.03328C1.52362 4.23578 1.35307 4.39994 1.14267 4.39994C0.932277 4.39994 0.761719 4.23578 0.761719 4.03328C0.761719 3.83077 0.932277 3.66661 1.14267 3.66661C1.35307 3.66661 1.52362 3.83077 1.52362 4.03328Z" fill="url(#paint0_linear_319_5640)"/>
</g>
</g>
<defs>
<filter id="filter0_d_319_5640" x="0.761719" y="0.733276" width="5.3335" height="4.66663" filterUnits="userSpaceOnUse" color-interpolation-filters="sRGB">
<feFlood flood-opacity="0" result="BackgroundImageFix"/>
<feColorMatrix in="SourceAlpha" type="matrix" values="0 0 0 0 0 0 0 0 0 0 0 0 0 0 0 0 0 0 127 0" result="hardAlpha"/>
<feOffset dy="1"/>
<feColorMatrix type="matrix" values="0 0 0 0 0 0 0 0 0 0 0 0 0 0 0 0 0 0 0.06 0"/>
<feBlend mode="normal" in2="BackgroundImageFix" result="effect1_dropShadow_319_5640"/>
<feBlend mode="normal" in="SourceGraphic" in2="effect1_dropShadow_319_5640" result="shape"/>
</filter>
<linearGradient id="paint0_linear_319_5640" x1="0.761719" y1="0.733276" x2="0.761719" y2="4.39994" gradientUnits="userSpaceOnUse">
<stop stop-color="white"/>
<stop offset="1" stop-color="#F0F0F0"/>
</linearGradient>
</defs>
</svg>
